<?xml version="1.0" encoding="UTF-8"?>
<svg width="512" height="512" viewBox="0 0 512 512" fill="none" xmlns="http://www.w3.org/2000/svg">
    <!-- Background -->
    <rect width="512" height="512" rx="100" fill="#3C8C4E"/>
    
    <!-- JS Text -->
    <path d="M140 140h100v180c0 22-8 40-24 54-16 14-36 21-60 21-26 0-47-7-63-21-16-14-25-33-27-57h48c2 12 7 21 15 27 8 6 18 9 30 9 13 0 23-4 30-12 7-8 11-20 11-36V140z" fill="white"/>
    <path d="M372 140v48H276v48h84v48h-84v84h-48V140h144z" fill="white"/>
    
    <!-- Academy Text -->
    <text x="256" y="440" font-family="Arial, sans-serif" font-size="48" fill="white" text-anchor="middle" font-weight="bold">ACADEMY</text>
</svg>
